<?xml version="1.0" encoding="UTF-8"?>
<svg version="1.1" xmlns="http://www.w3.org/2000/svg" width="1080" height="419">
<path d="M0 0 C356.4 0 712.8 0 1080 0 C1080 138.27 1080 276.54 1080 419 C723.6 419 367.2 419 0 419 C0 280.73 0 142.46 0 0 Z " fill="#FEFEFE" transform="translate(0,0)"/>
<path d="M0 0 C1.12019531 0.36222656 2.24039063 0.72445312 3.39453125 1.09765625 C16.17488189 5.65654795 27.80444331 12.04026837 38 21 C38.80695313 21.65226562 39.61390625 22.30453125 40.4453125 22.9765625 C59.50807384 38.93191447 71.55978694 63.99863912 74.625 88.4375 C77.00157401 117.53932142 70.36297415 144.80877408 51.62695312 167.67578125 C32.33081917 190.35482789 6.88908694 204.01480213 -22.8125 206.8125 C-24.20806626 206.88070381 -25.60387714 206.94434121 -27 207 C-26.89558594 208.22976562 -26.79117188 209.45953125 -26.68359375 210.7265625 C-26.59914431 212.35925172 -26.51724753 213.99207437 -26.4375 215.625 C-26.32438477 216.83736328 -26.32438477 216.83736328 -26.20898438 218.07421875 C-26.11545361 220.63072632 -26.21732244 222.5598062 -27 225 C-29.58732308 227.72102553 -32.70152233 229.26079748 -36 231 C-38.1134602 232.23053273 -40.22534203 233.46377892 -42.3359375 234.69921875 C-44.07558661 235.68791357 -45.81529099 236.67651999 -47.55749512 237.66070557 C-50.05199279 239.06996523 -52.54217611 240.48677443 -55.03271484 241.90301514 C-56.28217395 242.61339571 -57.53184689 243.32340031 -58.78173828 244.03302002 C-63.7847381 246.87378879 -68.77263894 249.73959709 -73.75 252.625 C-74.47509766 253.04402588 -75.20019531 253.46305176 -75.94726562 253.89477539 C-80.42153917 256.4856851 -84.8750213 259.10965375 -89.3203125 261.75 C-90.40731445 262.39243652 -91.49431641 263.03487305 -92.61425781 263.69677734 C-94.74480703 264.95666636 -96.87192759 266.22237648 -98.99511719 267.49462891 C-99.96352539 268.06616699 -100.93193359 268.63770508 -101.9296875 269.2265625 C-102.78804199 269.73783691 -103.64639648 270.24911133 -104.53076172 270.77587891 C-107.12522375 272.06207948 -109.11293148 272.76476165 -112 273 C-114.11450195 272.23413086 -114.11450195 272.23413086 -116.23828125 270.96484375 C-117.04587891 270.49240234 -117.85347656 270.01996094 -118.68554688 269.53320312 C-119.55244141 269.00662109 -120.41933594 268.48003906 -121.3125 267.9375 C-122.68825195 267.12635742 -122.68825195 267.12635742 -124.09179688 266.29882812 C-126.0563139 265.13972334 -128.01731557 263.97464373 -129.97509766 262.80419922 C-133.96216508 260.42611784 -137.97314884 258.09022733 -141.98535156 255.75488281 C-144.0028115 254.58048194 -146.01908057 253.40403303 -148.03417969 252.22558594 C-154.68589324 248.33593361 -161.36484013 244.49739184 -168.0625 240.6875 C-174.31520758 237.12310342 -180.55751327 233.54325675 -186.75 229.875 C-187.37656494 229.50850342 -188.00312988 229.14200684 -188.64868164 228.7644043 C-192.88285225 226.2342955 -192.88285225 226.2342955 -194 224 C-194.1195969 221.03132664 -194.17841052 218.08542237 -194.19287109 215.11572266 C-194.20104858 214.19526657 -194.20922607 213.27481049 -194.21765137 212.32646179 C-194.24251897 209.27233537 -194.25902328 206.21825541 -194.2734375 203.1640625 C-194.27876118 202.12279583 -194.28408485 201.08152916 -194.28956985 200.00870895 C-194.31630507 194.49930303 -194.33568037 188.98991983 -194.35009766 183.48046875 C-194.36676286 177.78147659 -194.4115555 172.08306078 -194.4624691 166.38428688 C-194.49607116 162.00915844 -194.50766727 157.63416811 -194.51332474 153.25892258 C-194.52005477 151.15770427 -194.53532197 149.0564956 -194.55921555 146.95540237 C-194.59072403 144.01747416 -194.59092557 141.08111819 -194.58349609 138.14306641 C-194.6081041 136.83687096 -194.6081041 136.83687096 -194.63320923 135.50428772 C-194.5719276 129.59636069 -194.5719276 129.59636069 -191.635849 126.53485107 C-190.76601883 126.02835022 -189.89618866 125.52184937 -189 125 C-188.09016357 124.43877441 -187.18032715 123.87754883 -186.24291992 123.29931641 C-184.75175659 122.45892822 -184.75175659 122.45892822 -183.23046875 121.6015625 C-182.10495605 120.96468506 -180.97944336 120.32780762 -179.81982422 119.67163086 C-179.22715759 119.33839813 -178.63449097 119.00516541 -178.02386475 118.66183472 C-176.161506 117.61032346 -174.3068234 116.54630251 -172.45361328 115.47875977 C-166.330442 111.96053635 -160.18842248 108.55253122 -153.88671875 105.36328125 C-142.64884237 100.39328788 -142.64884237 100.39328788 -135.24609375 91.390625 C-134.79393581 87.52895182 -134.90311384 83.88319725 -135 80 C-134.50848989 77.11656519 -133.73010572 74.35749957 -132.875 71.5625 C-132.65972656 70.85335449 -132.44445312 70.14420898 -132.22265625 69.41357422 C-123.10652698 40.93214477 -102.87381839 19.55285087 -76.73144531 5.75024414 C-53.50952261 -5.9768864 -24.7351564 -8.01723985 0 0 Z " fill="#070707" transform="translate(920,44)"/>
<path d="M0 0 C0.5588801 10.44689689 0.98379015 20.89019064 1.24349213 31.34904671 C1.36823997 36.20799303 1.53684807 41.0566512 1.81054688 45.90966797 C3.52606908 77.14118458 3.52606908 77.14118458 -2.21859741 85.05715942 C-7.80463805 89.93788723 -14.12917813 92.59835393 -21.09393311 94.96875 C-24.88641314 96.31455351 -27.9572217 98.12750665 -31.36328125 100.26171875 C-33.34593858 101.40436725 -35.32899602 102.54632183 -37.3125 103.6875 C-43.48291568 107.23791538 -49.65192569 110.78957236 -55.79296875 114.390625 C-57.11977661 115.16660034 -57.11977661 115.16660034 -58.47338867 115.95825195 C-60.11497807 116.91934869 -61.75458489 117.8838427 -63.3918457 118.85229492 C-68.77692283 122 -68.77692283 122 -71 122 C-71.30175123 111.44749668 -71.5324564 100.89602522 -71.67355824 90.34008026 C-71.74129878 85.43773121 -71.83308583 80.53834096 -71.98071289 75.63769531 C-72.12240699 70.90415141 -72.19977546 66.17344384 -72.23340416 61.4379425 C-72.25735166 59.63547588 -72.30412622 57.83315798 -72.37449074 56.03190613 C-72.80434002 44.56794725 -72.80434002 44.56794725 -71 40 C-67.07422222 36.03225428 -63.15569725 34.16152899 -58 32 C-56.27735492 31.03020252 -54.56549121 30.04044338 -52.875 29.015625 C-51.25126481 28.09152407 -49.62624339 27.16967982 -48 26.25 C-46.18616221 25.2188128 -44.37236123 24.18756085 -42.55859375 23.15625 C-41.64319824 22.63675781 -40.72780273 22.11726563 -39.78466797 21.58203125 C-36.1017589 19.48968943 -32.42425736 17.38796047 -28.74731445 15.28515625 C-26.97419237 14.27129868 -25.20060082 13.25826165 -23.42651367 12.24609375 C-19.49019296 9.99997637 -15.55809515 7.74761075 -11.640625 5.46875 C-10.98698975 5.09008789 -10.33335449 4.71142578 -9.65991211 4.32128906 C-7.94466587 3.32664119 -6.23198881 2.32756642 -4.51953125 1.328125 C-2 0 -2 0 0 0 Z " fill="#FEFEFE" transform="translate(885,183)"/>
<path d="M0 0 C11.16669168 7.85519001 18.99467194 18.35785015 22.64453125 31.67578125 C25.46881319 49.4918491 23.79621434 67.04739859 14.265625 82.59375 C9.72693572 88.80458796 3.61667561 92.46506739 -3.734375 94.59375 C-14.15636925 95.88268922 -22.35749997 94.0509245 -30.734375 87.59375 C-41.32469325 79.00406682 -47.17957544 65.99529663 -48.734375 52.59375 C-50.01833288 36.05584983 -49.00497975 21.29673498 -38.5546875 7.6796875 C-28.61853559 -3.70637498 -13.85504833 -8.25797583 0 0 Z " fill="#FDFEFE" transform="translate(119.734375,159.40625)"/>
<path d="M0 0 C1.14734619 0.35408936 1.14734619 0.35408936 2.31787109 0.71533203 C20.77288846 6.58445894 37.34278283 15.34885839 52 28 C52.91265625 28.76183594 53.8253125 29.52367187 54.765625 30.30859375 C79.27503657 51.39721322 95.81423301 84.1297763 98.80151367 116.27832031 C101.61003637 154.78928098 91.5885289 190.78857754 66.19897461 220.28149414 C48.02995941 240.98962844 27.08855477 253.67816513 1 262 C0.01 262.33 -0.98 262.66 -2 263 C-1.3503125 263.37511719 -0.700625 263.75023437 -0.03125 264.13671875 C0.8040625 264.64847656 1.639375 265.16023438 2.5 265.6875 C3.3353125 266.18636719 4.170625 266.68523437 5.03125 267.19921875 C7 269 7 269 7.34375 271.64453125 C7 274 7 274 6 275 C0.17461429 275.7683791 -3.42922315 273.50333929 -8.25 270.625 C-8.96929688 270.2125 -9.68859375 269.8 -10.4296875 269.375 C-13.25781125 267.73320531 -15.67711054 266.32288946 -18 264 C-18.41281521 260.23922624 -17.79084518 258.02920718 -15.84765625 254.828125 C-15.40099609 254.08175781 -14.95433594 253.33539063 -14.49414062 252.56640625 C-14.02169922 251.80199219 -13.54925781 251.03757812 -13.0625 250.25 C-12.35963867 249.08017578 -12.35963867 249.08017578 -11.64257812 247.88671875 C-8.21471497 242.21471497 -8.21471497 242.21471497 -7 241 C-4.5 240.875 -4.5 240.875 -2 241 C-1.67 241.33 -1.34 241.66 -1 242 C-1.39405638 247.02421881 -2.67112165 250.57387904 -5 255 C32.32857765 241.58091299 61.5707463 220.92336045 79.01123047 184.203125 C90.46524778 158.68187753 93.32729903 130.20256634 87 103 C86.73316406 101.76378906 86.46632813 100.52757813 86.19140625 99.25390625 C79.01044958 69.09388823 59.25522292 41.41384273 33.07910156 24.77929688 C3.70668741 6.93827495 -31.97096512 -1.05862111 -66 7.09375 C-67.67102826 7.54670574 -69.33770767 8.01596638 -71 8.5 C-71.8971875 8.76063232 -72.794375 9.02126465 -73.71875 9.28979492 C-105.95674008 19.10664777 -133.15244221 41.34081477 -149.08251953 71.01660156 C-154.69622619 81.87773768 -159.90072872 93.63190392 -161.50390625 105.8359375 C-162 109 -162 109 -164 111 C-168.55555556 110.44444444 -168.55555556 110.44444444 -170 109 C-171.26413392 84.30313971 -153.27557644 56.9490403 -137.50048828 39.32470703 C-103.90665162 2.72471049 -48.25604543 -15.15685937 0 0 Z " fill="#070707" transform="translate(926,14)"/>
<path d="M0 0 C16.20219831 6.48087932 16.20219831 6.48087932 21 12 C23.6158019 18.14928443 22.83240918 25.10131879 22.5 31.625 C22.46791014 33.41003925 22.44310736 35.19522516 22.42578125 36.98046875 C22.36787673 41.32655303 22.21136296 45.65878305 22 50 C22.80896729 49.87633057 23.61793457 49.75266113 24.45141602 49.62524414 C33.25700121 48.53109826 33.25700121 48.53109826 36.96484375 50.87109375 C37.61582031 51.71800781 38.26679687 52.56492188 38.9375 53.4375 C41.60500974 57.09218364 41.60500974 57.09218364 45.69140625 58.34765625 C47.95793615 58.24003893 47.95793615 58.24003893 49 57 C49.1584265 54.9291528 49.25124422 52.85321971 49.31640625 50.77734375 C49.37924805 48.88725586 49.37924805 48.88725586 49.44335938 46.95898438 C49.48317596 45.61849264 49.52288814 44.2779978 49.5625 42.9375 C49.60568042 41.59308477 49.64929456 40.2486834 49.69335938 38.90429688 C49.79985358 35.6029766 49.9018646 32.30157764 50 29 C51.79437226 29.86943811 53.58532225 30.74593914 55.375 31.625 C56.37273438 32.11226562 57.37046875 32.59953125 58.3984375 33.1015625 C58.94464752 33.40319305 59.49085754 33.70482361 60.05361938 34.01559448 C62.06628133 35.09014493 62.06628133 35.09014493 64.61117554 35.89089966 C67.83830443 37.24284918 69.69382307 38.34491378 72 41 C73.44602883 47.23914512 73.16447979 53.37289661 72.9765625 59.7421875 C72.95789999 61.59445372 72.94367068 63.44676946 72.9336853 65.29910278 C72.89558889 70.16334478 72.79744402 75.02457756 72.68664551 79.88763428 C72.58415504 84.85436286 72.53863593 89.82158018 72.48828125 94.7890625 C72.38118681 104.52736046 72.21062836 114.26342957 72 124 C70.27610308 123.0615335 68.552434 122.12264846 66.82885742 121.18359375 C65.86896408 120.66079834 64.90907074 120.13800293 63.92008972 119.59936523 C59.36313385 117.10347042 54.83532186 114.55710776 50.3125 112 C48.8440564 111.17012573 48.8440564 111.17012573 47.34594727 110.32348633 C39.05596475 105.62484149 30.81640319 100.84226024 22.59692383 96.02148438 C15.09522504 91.62332528 7.551975 87.31541428 0 83 C0 55.61 0 28.22 0 0 Z " fill="#FAFAFA" transform="translate(734,182)"/>
<path d="M0 0 C0.85078125 -0.00773438 1.7015625 -0.01546875 2.578125 -0.0234375 C17.17350071 0.02133359 30.02855387 5.84794288 40.625 15.6875 C41.800625 16.9559375 41.800625 16.9559375 43 18.25 C43.70576172 18.96542969 43.70576172 18.96542969 44.42578125 19.6953125 C54.38911618 30.35376382 57.36157363 43.04447995 57.3125 57.1875 C57.32861328 58.11240234 57.34472656 59.03730469 57.36132812 59.99023438 C57.37178541 74.91278309 50.88732629 87.0987696 40.68359375 97.7421875 C29.35084991 108.33261188 15.0586253 113.04779055 -0.27636719 112.77148438 C-15.0921222 112.06931589 -30.43336842 107.3573722 -41.453125 97.01953125 C-53.08383382 83.71470525 -56.98340945 67.57942605 -56.17919922 50.27490234 C-54.92118824 36.0597211 -46.78970214 24.05699843 -37 14.25 C-36.43539062 13.67378906 -35.87078125 13.09757813 -35.2890625 12.50390625 C-25.4944889 3.30656275 -13.08733179 -0.11897574 0 0 Z M-25.25 18.796875 C-32.35087801 28.75078436 -35.57413065 39.72463178 -35.4375 51.875 C-35.42992676 52.82995361 -35.42235352 53.78490723 -35.41455078 54.76879883 C-35.0582844 70.29239139 -31.00484939 84.22360962 -20.125 95.6875 C-12.14398473 103.25984882 -4.40096388 105.77056357 6.48046875 105.6484375 C15.47357134 104.63035041 22.69973274 99.74087059 28.31640625 92.8046875 C37.59648723 78.7230797 39.31320182 60.27524637 36.61328125 43.90527344 C33.32895847 29.77611683 25.4239642 18.90030176 13.73046875 10.6484375 C-0.17675526 2.39174398 -15.49915294 6.92285963 -25.25 18.796875 Z " fill="#224CE3" transform="translate(106,148.75)"/>
<path d="M0 0 C2.02709478 5.87285608 4.04706337 11.74813297 6.0625 17.625 C6.52644165 18.97739777 6.52644165 18.97739777 6.99975586 20.3571167 C10.76834892 31.35754989 14.47324074 42.37587822 18.05859375 53.4375 C18.38980728 54.45895111 18.72102081 55.48040222 19.06227112 56.5328064 C20.66612664 61.48609598 22.26175548 66.44189101 23.84790039 71.40087891 C26.45401193 79.51561152 29.09365308 87.61839411 32.125 95.5859375 C32.56070313 96.73884277 32.99640625 97.89174805 33.4453125 99.07958984 C35.1963748 102.36888118 36.91080309 103.9555754 40 106 C42.41758216 106.67890061 42.41758216 106.67890061 44.8125 106.75 C45.99779297 106.83507812 45.99779297 106.83507812 47.20703125 106.921875 C47.79871094 106.94765625 48.39039063 106.9734375 49 107 C49 108.98 49 110.96 49 113 C33.82 113 18.64 113 3 113 C3 111.02 3 109.04 3 107 C5.64 106.67 8.28 106.34 11 106 C11.61169652 98.27733148 9.37017303 91.78974512 7 84.5 C5.68 80.375 4.36 76.25 3 72 C-8.88 71.67 -20.76 71.34 -33 71 C-33.66 73.97 -34.32 76.94 -35 80 C-35.46587241 81.53506862 -35.95955722 83.06270217 -36.5078125 84.5703125 C-36.77207031 85.32183594 -37.03632813 86.07335937 -37.30859375 86.84765625 C-37.85623835 88.37529645 -38.40838065 89.90133119 -38.96484375 91.42578125 C-40.62438593 96.17550542 -41.30703392 99.96731358 -41 105 C-38.56612247 106.21693876 -36.58161154 106.31959896 -33.875 106.5625 C-32.50988281 106.68818359 -32.50988281 106.68818359 -31.1171875 106.81640625 C-30.41851563 106.87699219 -29.71984375 106.93757813 -29 107 C-29 108.98 -29 110.96 -29 113 C-41.54 113 -54.08 113 -67 113 C-67 111.02 -67 109.04 -67 107 C-66.40832031 106.97421875 -65.81664062 106.9484375 -65.20703125 106.921875 C-64.41683594 106.86515625 -63.62664062 106.8084375 -62.8125 106.75 C-62.03519531 106.70359375 -61.25789063 106.6571875 -60.45703125 106.609375 C-57.02069352 105.75711954 -55.48826564 104.54364834 -53 102 C-51.33816966 99.13398359 -50.11116261 96.13213069 -48.875 93.0625 C-48.49375977 92.14355957 -48.11251953 91.22461914 -47.71972656 90.27783203 C-43.35362578 79.6370006 -39.294415 68.87365959 -35.28279114 58.09521484 C-33.65677236 53.7336028 -32.00105419 49.38419389 -30.32992554 45.03967285 C-29.11221092 41.86866142 -27.90557341 38.69349633 -26.70056152 35.51763916 C-26.11382095 33.97812061 -25.52267033 32.44027477 -24.92687988 30.90423584 C-24.09112451 28.7466683 -23.27241117 26.58330428 -22.45703125 24.41796875 C-22.20760269 23.78574905 -21.95817413 23.15352936 -21.70118713 22.50215149 C-19.95233234 17.78328207 -19.78497873 13.95164248 -20 9 C-19.19175781 8.68546875 -18.38351562 8.3709375 -17.55078125 8.046875 C-16.48214844 7.61890625 -15.41351562 7.1909375 -14.3125 6.75 C-12.72888672 6.12351563 -12.72888672 6.12351563 -11.11328125 5.484375 C-7.92624609 4.11078862 -7.92624609 4.11078862 -5.29296875 1.828125 C-3 0 -3 0 0 0 Z " fill="#234DE3" transform="translate(549,146)"/>
<path d="M0 0 C0.5669458 0.36367676 1.1338916 0.72735352 1.71801758 1.10205078 C1.71801758 3.74205078 1.71801758 6.38205078 1.71801758 9.10205078 C2.37801758 9.10205078 3.03801758 9.10205078 3.71801758 9.10205078 C3.71801758 8.44205078 3.71801758 7.78205078 3.71801758 7.10205078 C5.51098633 5.66455078 5.51098633 5.66455078 7.90551758 4.10205078 C8.68282227 3.58642578 9.46012695 3.07080078 10.26098633 2.53955078 C16.98422405 -1.3939174 23.63604665 -2.22195725 31.22192383 -0.24560547 C36.73187168 1.92667515 40.49064691 5.13420521 43.71801758 10.10205078 C44.63858472 12.86375222 44.86601907 14.62383933 44.92333984 17.48168945 C44.95325768 18.80271919 44.95325768 18.80271919 44.98377991 20.1504364 C45.0004924 21.09739883 45.0172049 22.04436127 45.03442383 23.02001953 C45.05520493 23.99240067 45.07598602 24.9647818 45.09739685 25.96662903 C45.16280506 29.07419743 45.22173687 32.18185063 45.28051758 35.28955078 C45.32371109 37.39567936 45.36732565 39.50179935 45.41137695 41.60791016 C45.51847756 46.77253669 45.61976977 51.93724856 45.71801758 57.10205078 C48.35801758 57.43205078 50.99801758 57.76205078 53.71801758 58.10205078 C53.71801758 60.08205078 53.71801758 62.06205078 53.71801758 64.10205078 C42.82801758 64.10205078 31.93801758 64.10205078 20.71801758 64.10205078 C20.71801758 62.12205078 20.71801758 60.14205078 20.71801758 58.10205078 C21.68739258 57.97830078 22.65676758 57.85455078 23.65551758 57.72705078 C24.66614258 57.52080078 25.67676758 57.31455078 26.71801758 57.10205078 C28.36167942 53.8147271 27.90257089 50.16550858 27.92114258 46.55126953 C27.92969269 45.2748333 27.92969269 45.2748333 27.93841553 43.97261047 C27.94787056 42.16949712 27.9544015 40.36636645 27.95825195 38.56323242 C27.96794245 35.8108888 27.99895432 33.0592967 28.03051758 30.30712891 C28.03704921 28.55518021 28.04229905 26.80322618 28.04614258 25.05126953 C28.05848938 24.23027267 28.07083618 23.40927582 28.08355713 22.56340027 C28.06550645 17.90817198 27.71610466 14.89721375 24.71801758 11.10205078 C20.48380064 8.18827572 15.65628796 8.5818116 10.71801758 9.10205078 C6.78911735 10.73909254 5.31537905 12.23213465 3.71801758 16.10205078 C3.43280051 18.15852122 3.43280051 18.15852122 3.4909668 20.31982422 C3.49111786 21.14037292 3.49126892 21.96092163 3.49142456 22.80633545 C3.50174713 23.68251526 3.5120697 24.55869507 3.52270508 25.46142578 C3.52694992 26.81799286 3.52694992 26.81799286 3.53128052 28.20196533 C3.54245976 31.08546273 3.56756024 33.96864753 3.59301758 36.85205078 C3.60305029 38.80907754 3.61217564 40.76610918 3.62036133 42.72314453 C3.64239173 47.5162334 3.67690614 52.30908912 3.71801758 57.10205078 C5.69801758 57.43205078 7.67801758 57.76205078 9.71801758 58.10205078 C9.71801758 60.08205078 9.71801758 62.06205078 9.71801758 64.10205078 C-0.84198242 64.10205078 -11.40198242 64.10205078 -22.28198242 64.10205078 C-22.28198242 59.10205078 -22.28198242 59.10205078 -21.28198242 58.10205078 C-18.95380279 57.73444347 -16.62014392 57.39963497 -14.28198242 57.10205078 C-14.15831651 51.62117746 -14.06761299 46.14111721 -14.00732422 40.65917969 C-13.98219096 38.79477797 -13.94807859 36.93047468 -13.90478516 35.06640625 C-13.8440789 32.38533247 -13.81576185 29.70556176 -13.79370117 27.02392578 C-13.76789474 26.19149353 -13.74208832 25.35906128 -13.71549988 24.50140381 C-13.68619234 19.55624903 -13.68619234 19.55624903 -16.625 15.66943359 C-17.5018042 15.15219727 -18.3786084 14.63496094 -19.28198242 14.10205078 C-20.27198242 13.44205078 -21.26198242 12.78205078 -22.28198242 12.10205078 C-22.0390625 10.25390625 -22.0390625 10.25390625 -21.28198242 8.10205078 C-18.43550565 6.0205477 -15.16700463 4.69814525 -11.96948242 3.22705078 C-11.10129883 2.79908203 -10.23311523 2.37111328 -9.33862305 1.93017578 C-8.49879883 1.53572266 -7.65897461 1.14126953 -6.79370117 0.73486328 C-6.02501709 0.37279785 -5.25633301 0.01073242 -4.46435547 -0.36230469 C-2.28198242 -0.89794922 -2.28198242 -0.89794922 0 0 Z " fill="#234DE3" transform="translate(396.281982421875,194.89794921875)"/>
<path d="M0 0 C3.12892517 2.55254421 4.24014192 5.47823825 5.484375 9.2109375 C5.59813372 10.69864355 5.66044702 12.19061074 5.68969727 13.68237305 C5.7196151 15.03343391 5.7196151 15.03343391 5.75013733 16.41178894 C5.76684982 17.38062515 5.78356232 18.34946136 5.80078125 19.34765625 C5.82156235 20.34223343 5.84234344 21.33681061 5.86375427 22.36152649 C5.92916912 25.54042617 5.9880974 28.71940884 6.046875 31.8984375 C6.09006788 34.05274298 6.13368242 36.20704004 6.17773438 38.36132812 C6.28484231 43.64444608 6.38613266 48.92764755 6.484375 54.2109375 C9.784375 53.5509375 13.084375 52.8909375 16.484375 52.2109375 C16.979375 54.1909375 16.979375 54.1909375 17.484375 56.2109375 C14.68852747 60.32247799 12.47550011 63.07659088 7.484375 64.2109375 C3.63771066 64.7319143 0.1286973 65.06899342 -3.39453125 63.23046875 C-6.43910402 60.84616477 -7.81333367 58.94585048 -8.515625 55.2109375 C-9.24007812 55.69304687 -9.96453125 56.17515625 -10.7109375 56.671875 C-11.67773438 57.30351562 -12.64453125 57.93515625 -13.640625 58.5859375 C-14.59195312 59.21242188 -15.54328125 59.83890625 -16.5234375 60.484375 C-22.91171359 64.17056042 -29.2253039 65.31115364 -36.515625 64.2109375 C-40.43352457 61.33248067 -43.02194097 57.97556807 -43.88671875 53.1328125 C-44.07447656 46.99202766 -42.55477561 42.86842722 -38.515625 38.2109375 C-33.82529867 33.75326624 -27.95892108 31.26702618 -22.203125 28.4609375 C-21.17638672 27.95433594 -20.14964844 27.44773438 -19.09179688 26.92578125 C-16.56904424 25.68200553 -14.04365698 24.44393762 -11.515625 23.2109375 C-11.46112662 21.48212768 -11.42260812 19.75281038 -11.390625 18.0234375 C-11.36742187 17.06050781 -11.34421875 16.09757812 -11.3203125 15.10546875 C-11.52638584 12.05146188 -12.16339953 9.94426157 -13.515625 7.2109375 C-16.88202082 4.59262964 -20.39708689 4.92690039 -24.515625 5.2109375 C-27.83748671 6.12208286 -27.83748671 6.12208286 -30.515625 7.2109375 C-30.42861328 8.31501953 -30.42861328 8.31501953 -30.33984375 9.44140625 C-29.9720796 17.3956194 -29.9720796 17.3956194 -32.640625 21.3984375 C-35.99576473 23.51363428 -37.62411723 23.88772146 -41.515625 23.2109375 C-43.390625 22.0859375 -43.390625 22.0859375 -44.515625 20.2109375 C-45.08521085 16.54931421 -44.70973495 14.60759695 -43.078125 11.2734375 C-33.13480392 -0.61004379 -14.62340763 -8.81154049 0 0 Z " fill="#244EE3" transform="translate(351.515625,196.7890625)"/>
<path d="M0 0 C1.76953125 1.39453125 1.76953125 1.39453125 3.375 2.9375 C3.93574219 3.45699219 4.49648438 3.97648438 5.07421875 4.51171875 C9.82410359 9.4456185 12.05905823 15.14619873 12.625 21.9375 C12.375 23.9375 12.375 23.9375 11.375 24.9375 C8.41794679 25.02618299 5.48434944 25.05270296 2.52734375 25.03515625 C1.19770348 25.03303383 1.19770348 25.03303383 -0.15879822 25.03086853 C-3.00173254 25.02525215 -5.84458931 25.01269691 -8.6875 25 C-10.61002491 24.99498711 -12.53255104 24.99042384 -14.45507812 24.98632812 C-19.17841549 24.97527741 -23.90169458 24.95800183 -28.625 24.9375 C-27.98802188 34.75236122 -26.67491885 42.67062306 -19 49.5 C-14.22783343 53.3112552 -9.51886884 53.46288539 -3.625 52.9375 C0.93741457 51.90465392 3.76546527 50.56120995 7.0625 47.1875 C7.825625 46.445 8.58875 45.7025 9.375 44.9375 C12.1875 45.125 12.1875 45.125 14.375 45.9375 C13.18089611 51.74287743 9.78478091 56.10055237 5.125 59.6875 C-3.51288487 65.27997674 -12.48318986 65.93848126 -22.625 64.9375 C-25.95940508 64.02684315 -28.70241585 62.76651328 -31.625 60.9375 C-32.511875 60.40125 -33.39875 59.865 -34.3125 59.3125 C-42.63038228 50.76981009 -45.12867242 40.81592959 -45.20043945 29.22216797 C-44.8471265 19.36370758 -40.31392353 11.04237243 -33.1875 4.25 C-24.47214484 -2.55613856 -10.17864194 -5.95391604 0 0 Z " fill="#244EE3" transform="translate(284.625,196.0625)"/>
<path d="M0 0 C3.1021407 2.12345842 4.5871983 5.32255452 6.34350586 8.5546875 C6.73675049 9.26761963 7.12999512 9.98055176 7.53515625 10.71508789 C11.10075778 17.35268281 13.74221189 24.07688831 15.90600586 31.3046875 C16.15092773 32.11292969 16.39584961 32.92117187 16.64819336 33.75390625 C18.33477607 40.18833483 17.90600586 45.27814227 17.90600586 52.3046875 C4.70600586 52.3046875 -8.49399414 52.3046875 -22.09399414 52.3046875 C-22.42399414 47.6846875 -22.75399414 43.0646875 -23.09399414 38.3046875 C-23.72946035 34.09631888 -24.39698556 29.92619414 -25.15649414 25.7421875 C-25.52614381 23.67905631 -25.89216847 21.61527157 -26.25415039 19.55078125 C-26.41536377 18.66060303 -26.57657715 17.7704248 -26.74267578 16.85327148 C-27.09432643 14.30227695 -27.15613621 11.87621287 -27.09399414 9.3046875 C-25.95961914 8.91796875 -24.82524414 8.53125 -23.65649414 8.1328125 C-22.13556151 7.60705801 -20.61473375 7.08100004 -19.09399414 6.5546875 C-18.35020508 6.30203125 -17.60641602 6.049375 -16.84008789 5.7890625 C-12.24981025 4.19244419 -8.10265125 2.3549016 -3.91821289 -0.12988281 C-2.09399414 -0.6953125 -2.09399414 -0.6953125 0 0 Z " fill="#FCFCFC" transform="translate(968.093994140625,88.6953125)"/>
<path d="M0 0 C13.2 0 26.4 0 40 0 C38.83842066 18.58526941 38.83842066 18.58526941 36.4375 25.0625 C36.17864014 25.80000488 35.91978027 26.53750977 35.65307617 27.29736328 C32.35296609 36.32017964 28.00294922 45.45449726 22 53 C17.69737455 51.6497767 13.6954546 49.99916908 9.625 48.0625 C4.80735385 45.80543554 0.01503183 43.77001124 -5 42 C-4.06002768 33.3027824 -2.99443565 24.62108547 -1.9375 15.9375 C-1.298125 10.678125 -0.65875 5.41875 0 0 Z " fill="#FDFDFD" transform="translate(946,150)"/>
<path d="M0 0 C2.11230469 0.99975586 2.11230469 0.99975586 4.171875 2.21484375 C5.29142578 2.87323242 5.29142578 2.87323242 6.43359375 3.54492188 C7.19800781 4.00447266 7.96242188 4.46402344 8.75 4.9375 C9.52988281 5.39318359 10.30976562 5.84886719 11.11328125 6.31835938 C16.86811514 9.73623029 16.86811514 9.73623029 18 12 C17.42894531 12.32049316 16.85789062 12.64098633 16.26953125 12.97119141 C5.11444728 19.23816724 -6.01092659 25.55196353 -17.0625 32 C-18.04581299 32.57194092 -19.02912598 33.14388184 -20.04223633 33.7331543 C-25.13713484 36.70597813 -30.19942063 39.72243025 -35.2265625 42.80859375 C-36.2280835 43.41767578 -37.22960449 44.02675781 -38.26147461 44.65429688 C-40.16833032 45.816389 -42.06802528 46.99033927 -43.95922852 48.17773438 C-44.81186279 48.69529297 -45.66449707 49.21285156 -46.54296875 49.74609375 C-47.28571045 50.20685303 -48.02845215 50.6676123 -48.79370117 51.14233398 C-51.65219531 52.25353128 -53.09705069 51.91071807 -56 51 C-58.2199707 49.96850586 -58.2199707 49.96850586 -60.42578125 48.71484375 C-61.22177734 48.26689453 -62.01777344 47.81894531 -62.83789062 47.35742188 C-64.06282227 46.65456055 -64.06282227 46.65456055 -65.3125 45.9375 C-66.14845703 45.46505859 -66.98441406 44.99261719 -67.84570312 44.50585938 C-69.90069265 43.34332244 -71.95187737 42.17457909 -74 41 C-74 40.34 -74 39.68 -74 39 C-73.42894531 38.67950684 -72.85789062 38.35901367 -72.26953125 38.02880859 C-61.11444728 31.76183276 -49.98907341 25.44803647 -38.9375 19 C-37.95418701 18.42805908 -36.97087402 17.85611816 -35.95776367 17.2668457 C-30.86286516 14.29402187 -25.80057937 11.27756975 -20.7734375 8.19140625 C-19.7719165 7.58232422 -18.77039551 6.97324219 -17.73852539 6.34570312 C-15.83166968 5.183611 -13.93197472 4.00966073 -12.04077148 2.82226562 C-11.18813721 2.30470703 -10.33550293 1.78714844 -9.45703125 1.25390625 C-8.71428955 0.79314697 -7.97154785 0.3323877 -7.20629883 -0.14233398 C-4.35254217 -1.25168965 -2.89672216 -0.90944597 0 0 Z " fill="#FBFBFB" transform="translate(813,135)"/>
<path d="M0 0 C2.12817383 1.03149414 2.12817383 1.03149414 4.20703125 2.28515625 C4.95791016 2.73310547 5.70878906 3.18105469 6.48242188 3.64257812 C7.25134766 4.11115234 8.02027344 4.57972656 8.8125 5.0625 C9.60076172 5.53494141 10.38902344 6.00738281 11.20117188 6.49414062 C13.13812608 7.65631315 15.07078295 8.82504417 17 10 C15.70370192 13.88889425 14.3996439 14.166712 10.83984375 16.08203125 C9.74784668 16.67733643 8.65584961 17.2726416 7.53076172 17.88598633 C6.65287994 18.35652939 6.65287994 18.35652939 5.75726318 18.83657837 C2.66213002 20.49646875 -0.41581972 22.1877452 -3.49609375 23.875 C-4.12563965 24.21880203 -4.75518555 24.56260406 -5.40380859 24.91682434 C-11.5399591 28.27553705 -17.59098082 31.77381092 -23.625 35.3125 C-24.60509033 35.88468262 -25.58518066 36.45686523 -26.5949707 37.04638672 C-31.1326073 39.70235906 -35.64938168 42.38625336 -40.1328125 45.1328125 C-40.91833496 45.60936279 -41.70385742 46.08591309 -42.51318359 46.5769043 C-43.95766327 47.45554272 -45.39602308 48.34435935 -46.82666016 49.24536133 C-51.48401375 52.06993244 -51.48401375 52.06993244 -53.94726562 51.73608398 C-57.80431152 50.35299724 -61.22458734 48.18879879 -64.75 46.125 C-65.54277344 45.67769531 -66.33554687 45.23039062 -67.15234375 44.76953125 C-67.90128906 44.33253906 -68.65023437 43.89554688 -69.421875 43.4453125 C-70.10862305 43.04844238 -70.79537109 42.65157227 -71.50292969 42.24267578 C-71.99696289 41.83259277 -72.49099609 41.42250977 -73 41 C-73 40.01 -73 39.02 -73 38 C-72.42894531 37.67950684 -71.85789062 37.35901367 -71.26953125 37.02880859 C-60.08916605 30.74762965 -48.9437336 24.41364595 -37.875 17.9375 C-36.88910889 17.36298096 -35.90321777 16.78846191 -34.88745117 16.1965332 C-29.90832845 13.29398433 -24.94292931 10.37133076 -19.99609375 7.4140625 C-18.1017477 6.296561 -16.20722416 5.1793603 -14.3125 4.0625 C-13.44544434 3.5358374 -12.57838867 3.0091748 -11.68505859 2.46655273 C-10.87762207 1.99419189 -10.07018555 1.52183105 -9.23828125 1.03515625 C-8.53743408 0.6162915 -7.83658691 0.19742676 -7.11450195 -0.23413086 C-4.32869621 -1.24314513 -2.81002195 -0.86618542 0 0 Z " fill="#FBFBFB" transform="translate(863,164)"/>
<path d="M0 0 C14.85 0 29.7 0 45 0 C45 7.54193141 44.7543466 14.33045843 43.625 21.6875 C43.43550781 23.01491211 43.43550781 23.01491211 43.2421875 24.36914062 C42.4569607 29.6811999 41.3888311 34.81301775 40 40 C31.2612908 39.23540568 22.53708854 38.34779242 13.8125 37.4375 C6.9753125 36.7259375 6.9753125 36.7259375 0 36 C0 24.12 0 12.24 0 0 Z " fill="#F9F9F9" transform="translate(893,149)"/>
<path d="M0 0 C3.11164479 2.80806969 3.86756843 4.52821253 5 8.5625 C5 12 5 12 3.5 14.4375 C0.01001413 16.61874117 -1.95653328 16.70938013 -6 16 C-9.43027352 12.64768724 -11.53972495 9.10045842 -14 5 C-17.46766171 3.26616914 -21.20842895 3.5334462 -25 4 C-29.39677006 6.4851309 -31.07552993 9.41253774 -33 14 C-34.29986893 24.87908323 -33.46506328 37.59346014 -26.625 46.625 C-21.19986717 51.53345351 -16.84949725 52.49133642 -9.68359375 52.296875 C-5.90799907 51.8791964 -3.3676861 50.75119677 0 49 C1.6642135 48.32723284 3.32986582 47.65793165 5 47 C5.66 47.66 6.32 48.32 7 49 C6.85302029 51.86316477 6.16313083 52.84675589 4.06640625 54.81640625 C-5.83112956 61.718432 -14.86511499 64.34004865 -27 63 C-36.08209622 60.67638254 -41.96782358 56.15126776 -46.921875 48.2578125 C-51.11761508 39.47108145 -51.5513445 28.89910398 -49.08984375 19.5390625 C-44.92685983 8.91073699 -38.50243835 2.30825811 -28.4375 -2.8125 C-19.17348561 -5.94247768 -8.37810825 -5.01702764 0 0 Z " fill="#234DE3" transform="translate(227,198)"/>
<path d="M0 0 C0.71953857 0.11593506 1.43907715 0.23187012 2.18041992 0.35131836 C5.51527117 0.88546047 8.85135419 1.41150647 12.1875 1.9375 C13.31865234 2.11990234 14.44980469 2.30230469 15.61523438 2.49023438 C16.74638672 2.66748047 17.87753906 2.84472656 19.04296875 3.02734375 C20.06414795 3.18968506 21.08532715 3.35202637 22.13745117 3.51928711 C27.73673256 4.21614477 33.37414159 4.56724166 39 5 C39 16.55 39 28.1 39 40 C24.48 40 9.96 40 -5 40 C-5 29.66991064 -4.69146638 21.36486987 -2.5 11.5625 C-2.26152344 10.43779297 -2.02304687 9.31308594 -1.77734375 8.15429688 C-1.19834125 5.43298514 -0.60593291 2.71541743 0 0 Z " fill="#FDFDFD" transform="translate(846,101)"/>
<path d="M0 0 C2.39163256 9.10948802 3.62683135 17.92291118 4.1875 27.3125 C4.455625 31.499375 4.72375 35.68625 5 40 C-9.52 40 -24.04 40 -39 40 C-39 28.45 -39 16.9 -39 5 C-36.009375 4.731875 -33.01875 4.46375 -29.9375 4.1875 C-22.14694346 3.45001186 -14.60292312 2.29180362 -6.96875 0.5859375 C-4 0 -4 0 0 0 Z " fill="#FDFDFD" transform="translate(933,101)"/>
<path d="M0 0 C2.9375 1.5625 2.9375 1.5625 5 4 C5.6875 7.4375 5.6875 7.4375 5 11 C2.33936652 14.87001234 2.33936652 14.87001234 -1 16 C-4.98041846 15.9357997 -8.69324043 15.56168805 -12.63671875 15.00390625 C-16.02414603 14.61597566 -16.02414603 14.61597566 -17.89453125 16.77734375 C-20.08746152 21.1864509 -20.14591596 25.06390457 -20.1328125 29.87890625 C-20.13376923 30.64677963 -20.13472595 31.41465302 -20.13571167 32.20579529 C-20.13639159 33.82722048 -20.13455043 35.44864841 -20.13037109 37.07006836 C-20.12501284 39.55653973 -20.13032617 42.04283107 -20.13671875 44.52929688 C-20.13605808 46.10416707 -20.13477714 47.67903715 -20.1328125 49.25390625 C-20.13483673 49.99975479 -20.13686096 50.74560333 -20.13894653 51.51405334 C-20.19354979 55.38447075 -20.19354979 55.38447075 -19 59 C-16.64400765 59.46751788 -16.64400765 59.46751788 -13.9375 59.625 C-13.01839844 59.69976562 -12.09929688 59.77453125 -11.15234375 59.8515625 C-10.44207031 59.90054688 -9.73179687 59.94953125 -9 60 C-9 61.98 -9 63.96 -9 66 C-21.54 66 -34.08 66 -47 66 C-47 64.02 -47 62.04 -47 60 C-42.545 59.505 -42.545 59.505 -38 59 C-37.90106672 53.5190965 -37.82850135 48.03871355 -37.78027344 42.55712891 C-37.76016739 40.69277899 -37.7328782 38.82849206 -37.69824219 36.96435547 C-37.64967879 34.28337052 -37.62702162 31.60321977 -37.609375 28.921875 C-37.58872986 28.08944275 -37.56808472 27.2570105 -37.54681396 26.39935303 C-37.5200545 21.61012947 -37.5200545 21.61012947 -39.88378906 17.54003906 C-41.32740633 16.48946941 -42.78350899 15.45589654 -44.25 14.4375 C-45.11625 13.7259375 -45.11625 13.7259375 -46 13 C-46 12.01 -46 11.02 -46 10 C-42.92274141 8.48729764 -39.83728731 6.99211419 -36.75 5.5 C-35.87730469 5.07074219 -35.00460937 4.64148438 -34.10546875 4.19921875 C-33.26113281 3.79316406 -32.41679688 3.38710937 -31.546875 2.96875 C-30.77182617 2.59169922 -29.99677734 2.21464844 -29.19824219 1.82617188 C-27 1 -27 1 -23 1 C-21.6728739 4.9813783 -21.93084087 8.85045227 -22 13 C-21.34 12.319375 -20.68 11.63875 -20 10.9375 C-8.35449219 -0.70800781 -8.35449219 -0.70800781 0 0 Z " fill="#254EE3" transform="translate(690,193)"/>
<path d="M0 0 C4.85158687 1.51849354 9.42890362 3.43197099 14.0625 5.5 C18.350113 7.40295173 22.62821628 9.29560089 27 11 C26.47039137 14.81420058 25.907244 18.61834989 25.28125 22.41796875 C23.82757383 31.26615219 22.51884742 40.0364635 22 49 C16.12048934 47.35772927 11.57649518 44.37903464 6.56640625 41.01367188 C3.47336857 39.04968783 1.69101512 37.99822361 -2.0390625 38.0078125 C-5.56499003 39.18932383 -8.63226212 40.74259609 -11.875 42.5625 C-13.02742187 43.20316406 -14.17984375 43.84382813 -15.3671875 44.50390625 C-16.23601563 44.99761719 -17.10484375 45.49132812 -18 46 C-18.54314094 30.1483311 -10.30579966 15.03403826 -2 2 C-1.34 1.34 -0.68 0.68 0 0 Z " fill="#FBFBFB" transform="translate(811,88)"/>
<path d="M0 0 C-0.33 1.98 -0.66 3.96 -1 6 C0.051875 5.938125 1.10375 5.87625 2.1875 5.8125 C6.86360255 6.04247226 9.13789188 7.07476957 12.3828125 10.4296875 C16.35775109 14.99518839 17.42065747 18.56399674 17.34375 24.45703125 C16.54656035 30.35442289 13.56552514 35.96251379 9.125 39.9375 C2.37374337 44.39332938 -3.03554854 45.69372107 -11 45 C-12.34110288 44.69944723 -13.67828266 44.3767654 -15 44 C-15.19335938 44.72445312 -15.38671875 45.44890625 -15.5859375 46.1953125 C-16.92860286 51.18045615 -18.28749486 56.12594691 -20 61 C-17.36 60.67 -14.72 60.34 -12 60 C-12 60.99 -12 61.98 -12 63 C-19.59 63 -27.18 63 -35 63 C-35 62.34 -35 61.68 -35 61 C-32.36 61 -29.72 61 -27 61 C-26.86574112 60.26622635 -26.73148224 59.5324527 -26.59315491 58.77644348 C-26.05755964 56.26942557 -25.3754124 53.9853908 -24.50952148 51.5769043 C-24.20928574 50.73641037 -23.90904999 49.89591644 -23.59971619 49.029953 C-23.27677078 48.1370607 -22.95382538 47.2441684 -22.62109375 46.32421875 C-22.28956802 45.3990596 -21.9580423 44.47390045 -21.61647034 43.52070618 C-20.56008704 40.57511678 -19.49886292 37.63129832 -18.4375 34.6875 C-17.71908081 32.68696393 -17.00097818 30.68631415 -16.28320312 28.68554688 C-14.52580238 23.78904068 -12.76442724 18.89397833 -11 14 C-11.68707031 14.34933594 -12.37414062 14.69867188 -13.08203125 15.05859375 C-13.98308594 15.51363281 -14.88414062 15.96867187 -15.8125 16.4375 C-16.70582031 16.88996094 -17.59914063 17.34242188 -18.51953125 17.80859375 C-21 19 -21 19 -24 20 C-22.52663164 16.17090709 -20.56408372 14.78616322 -17.0625 12.75 C-16.18722656 12.22921875 -15.31195312 11.7084375 -14.41015625 11.171875 C-12 10 -12 10 -9 10 C-8.938125 8.906875 -8.87625 7.81375 -8.8125 6.6875 C-8 3 -8 3 -5.625 1.0625 C-3 0 -3 0 0 0 Z " fill="#EC2222" transform="translate(734,356)"/>
<path d="M0 0 C0.33 19.14 0.66 38.28 1 58 C3.97 58.33 6.94 58.66 10 59 C10 60.98 10 62.96 10 65 C-2.21 65 -14.42 65 -27 65 C-27 63.02 -27 61.04 -27 59 C-23.7 59 -20.4 59 -17 59 C-17.33 44.81 -17.66 30.62 -18 16 C-20.64 14.68 -23.28 13.36 -26 12 C-25.67 10.68 -25.34 9.36 -25 8 C-23.1015625 6.875 -23.1015625 6.875 -20.625 6 C-19.7278125 5.67515625 -18.830625 5.3503125 -17.90625 5.015625 C-16.46765625 4.51289063 -16.46765625 4.51289063 -15 4 C-13.53046875 3.43539062 -13.53046875 3.43539062 -12.03125 2.859375 C-4.54049296 0 -4.54049296 0 0 0 Z " fill="#2952E4" transform="translate(628,194)"/>
<path d="M0 0 C12.375 0 12.375 0 17.76171875 0.875 C18.89931641 1.05546875 20.03691406 1.2359375 21.20898438 1.421875 C22.35689453 1.61265625 23.50480469 1.8034375 24.6875 2 C25.87794922 2.19078125 27.06839844 2.3815625 28.29492188 2.578125 C31.19793807 3.04447298 34.09945705 3.5185502 37 4 C34.03339078 19.91917248 24.11768446 35.8319053 11.0859375 45.40625 C7.25810488 47.76702783 4.60551145 48.23241476 0 49 C0 32.83 0 16.66 0 0 Z " fill="#F7F7F7" transform="translate(893,193)"/>
<path d="M0 0 C0 15.84 0 31.68 0 48 C-17.25506757 48 -17.25506757 48 -25.9375 46.5 C-26.82373047 46.35691406 -27.70996094 46.21382812 -28.62304688 46.06640625 C-30.75042531 45.72142596 -32.87551105 45.36234938 -35 45 C-36.44803294 40.50875837 -34.8910965 37.55395578 -33 33.4375 C-32.67749268 32.72513184 -32.35498535 32.01276367 -32.02270508 31.27880859 C-26.15283763 18.60766616 -15.93582946 0 0 0 Z " fill="#FCFCFC" transform="translate(885,49)"/>
<path d="M0 0 C10.04909739 1.67484957 16.75990291 7.25168045 22.74609375 15.3671875 C26.26328063 20.6468845 29.16904905 26.14936467 31.875 31.875 C32.32262695 32.82052734 32.32262695 32.82052734 32.77929688 33.78515625 C34.32429666 37.16326767 35.45447684 40.32121562 36 44 C23.81500381 46.89135503 12.69990294 48 0 48 C0 32.16 0 16.32 0 0 Z " fill="#FCFCFC" transform="translate(894,49)"/>
<path d="M0 0 C2.42159956 0.94988669 4.46343621 2.03866175 6.6328125 3.47265625 C7.33019531 3.92769531 8.02757812 4.38273438 8.74609375 4.8515625 C9.26558594 5.20089844 9.78507813 5.55023438 10.3203125 5.91015625 C6.90531685 9.8004348 3.06998762 11.89232264 -1.4296875 14.28515625 C-8.79469662 18.2897568 -16.07006396 22.42459374 -23.3046875 26.66015625 C-24.30250244 27.24071777 -25.30031738 27.8212793 -26.32836914 28.41943359 C-31.70932118 31.55657277 -37.05629106 34.7402175 -42.37109375 37.98828125 C-44.00280518 38.97296387 -44.00280518 38.97296387 -45.66748047 39.97753906 C-47.76286956 41.24315024 -49.84958008 42.52326958 -51.92626953 43.81933594 C-52.86970215 44.38555664 -53.81313477 44.95177734 -54.78515625 45.53515625 C-55.61168701 46.04304688 -56.43821777 46.5509375 -57.28979492 47.07421875 C-59.6796875 47.91015625 -59.6796875 47.91015625 -62.359375 47.12548828 C-65.52559267 45.4670885 -68.59816802 43.72281477 -71.6796875 41.91015625 C-71.6796875 41.25015625 -71.6796875 40.59015625 -71.6796875 39.91015625 C-69.03833685 38.38630011 -66.39698292 36.86244966 -63.75561523 35.33862305 C-61.42694786 33.99512942 -59.0983268 32.6515559 -56.76977539 31.30786133 C-50.76838832 27.84490885 -44.76616206 24.38343232 -38.76171875 20.92578125 C-37.65578369 20.28842041 -36.54984863 19.65105957 -35.41040039 18.99438477 C-33.22437704 17.73534292 -31.03737254 16.478003 -28.84936523 15.22241211 C-24.01207912 12.4406111 -19.197315 9.63644637 -14.4453125 6.7109375 C-13.6622876 6.23309814 -12.8792627 5.75525879 -12.07250977 5.26293945 C-10.65370024 4.39261691 -9.24201566 3.51051299 -7.83959961 2.61401367 C-5.10802925 0.94406579 -3.24557703 -0.10881672 0 0 Z " fill="#F8F8F8" transform="translate(840.6796875,151.08984375)"/>
<path d="M0 0 C14.85 0 29.7 0 45 0 C44.01 4.29 43.02 8.58 42 13 C40 9 40 9 39.0625 6.375 C38.11541176 3.69200398 38.11541176 3.69200398 35 2 C32.23344676 1.85754103 29.57346694 1.81230555 26.8125 1.875 C25.68811523 1.88853516 25.68811523 1.88853516 24.54101562 1.90234375 C22.69387346 1.92587422 20.84689588 1.96174439 19 2 C18.76812988 2.57967529 18.53625977 3.15935059 18.29736328 3.7565918 C15.19824219 11.50439453 12.09912109 19.25219727 9 27 C11.77315591 26.94003987 14.54089706 26.85306688 17.3125 26.75 C18.09818359 26.73582031 18.88386719 26.72164063 19.69335938 26.70703125 C24.27243002 26.61517202 24.27243002 26.61517202 27.9375 24.15625 C28.4634375 23.08890625 28.4634375 23.08890625 29 22 C29.556875 20.9275 30.11375 19.855 30.6875 18.75 C31.120625 17.8425 31.55375 16.935 32 16 C33.30081307 19.6113224 32.68476184 21.66493791 31.34765625 25.203125 C30.80141602 26.67265625 30.80141602 26.67265625 30.24414062 28.171875 C29.85419922 29.18765625 29.46425781 30.2034375 29.0625 31.25 C28.67642578 32.28125 28.29035156 33.3125 27.89257812 34.375 C26.93802268 36.92048119 25.97355028 39.46173614 25 42 C24.67 42 24.34 42 24 42 C23.67 38.37 23.34 34.74 23 31 C18.05 31 13.1 31 8 31 C6.68215224 34.22707595 5.37056738 37.45646177 4.0625 40.6875 C3.68931641 41.59951172 3.31613281 42.51152344 2.93164062 43.45117188 C2.57392578 44.33740234 2.21621094 45.22363281 1.84765625 46.13671875 C1.51773682 46.94842529 1.18781738 47.76013184 0.84790039 48.59643555 C-0.01772244 51.05023824 -0.55173421 53.43990426 -1 56 C2.83495721 56.03562578 6.66536811 55.99323593 10.5 55.9375 C12.11648438 55.95393555 12.11648438 55.95393555 13.765625 55.97070312 C20.73639345 55.82193673 24.51520632 54.76694076 29.4453125 49.73632812 C29.95835937 49.16333984 30.47140625 48.59035156 31 48 C31.825 47.195625 32.65 46.39125 33.5 45.5625 C33.995 45.046875 34.49 44.53125 35 44 C34.30057575 49.45550918 32.81999788 53.54000637 31 59 C14.5 59 -2 59 -19 59 C-19 58.34 -19 57.68 -19 57 C-17.783125 56.9175 -16.56625 56.835 -15.3125 56.75 C-12.34961125 55.98424796 -11.29706372 55.50260551 -9.72021484 52.8347168 C-9.36652832 51.90312744 -9.0128418 50.97153809 -8.6484375 50.01171875 C-8.23021729 48.93035645 -7.81199707 47.84899414 -7.38110352 46.73486328 C-6.92533936 45.5023584 -6.4695752 44.26985352 -6 43 C-5.47335756 41.60501025 -4.9458984 40.21032863 -4.41772461 38.81591797 C-2.69294349 34.2398803 -1.00132773 29.65190245 0.6875 25.0625 C1.55993216 22.69778145 2.43307206 20.33332662 3.30683899 17.96910095 C3.84534155 16.51140034 4.38298081 15.05338041 4.91960144 13.59498596 C6.22982333 10.04197614 7.57242528 6.50759737 9 3 C6.03 2.67 3.06 2.34 0 2 C0 1.34 0 0.68 0 0 Z " fill="#EC2222" transform="translate(627,342)"/>
<path d="M0 0 C0.66 0 1.32 0 2 0 C5.4250938 10.08227655 8.83513795 20.1686776 11.875 30.375 C12.07762451 31.0445874 12.28024902 31.7141748 12.48901367 32.40405273 C13.73644435 36.66426808 14.3617568 40.53229761 15 45 C4.77 45 -5.46 45 -16 45 C-14.20544624 38.41996954 -12.45954217 32.10006259 -10.1171875 25.7421875 C-9.72758347 24.67038742 -9.72758347 24.67038742 -9.33010864 23.57693481 C-8.78941548 22.09250705 -8.24659579 20.60885216 -7.70166016 19.12597656 C-6.86450083 16.84641101 -6.03532533 14.56404991 -5.20703125 12.28125 C-4.67754403 10.83056093 -4.14761299 9.38003376 -3.6171875 7.9296875 C-3.3692746 7.24752167 -3.12136169 6.56535583 -2.86593628 5.86251831 C-1.11566135 1.11566135 -1.11566135 1.11566135 0 0 Z " fill="#F9FAFE" transform="translate(535,166)"/>
<path d="M0 0 C-0.51621228 6.83981276 -2.48590969 12.63876684 -5 19 C-4.31035156 18.27554687 -3.62070312 17.55109375 -2.91015625 16.8046875 C10.75995245 2.64522463 10.75995245 2.64522463 17.3359375 1.64453125 C19.5625 1.625 19.5625 1.625 23 2 C22.56342458 9.55431389 20.48448903 15.52143176 17.5 22.4375 C17.08363281 23.42943359 16.66726563 24.42136719 16.23828125 25.44335938 C13.34872159 32.30255682 13.34872159 32.30255682 12 35 C15.3 32.69 18.6 30.38 22 28 C22.66 28.33 23.32 28.66 24 29 C20.19445629 34.15589793 15.8243474 38.18755828 10 41 C7.28125 41.2265625 7.28125 41.2265625 5 41 C4.505 40.505 4.505 40.505 4 40 C4.43963627 35.07080268 5.6082806 30.96401558 7.50390625 26.41015625 C7.99697266 25.21455078 8.49003906 24.01894531 8.99804688 22.78710938 C9.51935604 21.54549934 10.04084259 20.30396376 10.5625 19.0625 C11.08862863 17.79392562 11.61402607 16.52504772 12.13867188 15.25585938 C13.41863177 12.16751577 14.70592443 9.08244924 16 6 C4.22715156 12.39015245 -2.02489426 20.92726137 -8.08984375 32.55859375 C-9.63804209 35.34788361 -10.62167077 37.01659205 -13 39 C-15.1875 38.6875 -15.1875 38.6875 -17 38 C-16.62884496 30.23429462 -13.64906421 24.00048828 -10.4375 17 C-9.91736328 15.84371094 -9.39722656 14.68742187 -8.86132812 13.49609375 C-7.58372959 10.65959057 -6.29645024 7.82792389 -5 5 C-8.74730487 7.41042854 -11.41473899 9.38063459 -14 13 C-14.66 13 -15.32 13 -16 13 C-14.93024662 7.51751391 -12.26062639 4.79440695 -8.109375 1.34765625 C-5.30754901 -0.44239924 -3.24443325 -0.56777582 0 0 Z " fill="#EB1F1F" transform="translate(938,361)"/>
<path d="M0 0 C-0.47308594 0.52464844 -0.94617188 1.04929688 -1.43359375 1.58984375 C-10.43265002 12.13259778 -16.91418325 24.77109682 -21 38 C-26.21342077 37.39340702 -30.50219872 35.72933683 -35.25 33.625 C-35.96929688 33.32078125 -36.68859375 33.0165625 -37.4296875 32.703125 C-40.9877211 31.14398668 -42.80094784 30.29857824 -45 27 C-41.9950314 22.93229861 -38.59460509 19.77723848 -34.625 16.6875 C-34.01430664 16.21111084 -33.40361328 15.73472168 -32.77441406 15.24389648 C-8.90078408 -2.96692803 -8.90078408 -2.96692803 0 0 Z " fill="#F8F8F8" transform="translate(862,53)"/>
<path d="M0 0 C17.9231675 4.3362502 32.60867373 14.5979009 45 28 C42.4028626 31.05277554 39.42395676 32.40707258 35.8125 34.0625 C34.72582031 34.56910156 33.63914062 35.07570312 32.51953125 35.59765625 C28.69219601 37.12264332 25.0117011 38.08366609 21 39 C20.76925781 38.42668945 20.53851562 37.85337891 20.30078125 37.26269531 C13.28637299 19.1880524 13.28637299 19.1880524 1.76953125 3.81640625 C0 2 0 2 0 0 Z " fill="#FAFAFA" transform="translate(917,52)"/>
<path d="M0 0 C8.75306698 1.38206321 16.12452654 5.11933192 24 9 C15.87206631 22.10230419 1.08695986 29.92985476 -12.6875 36.0625 C-13.38319092 36.37396973 -14.07888184 36.68543945 -14.7956543 37.00634766 C-16.50356719 37.73718931 -18.24979889 38.3771902 -20 39 C-20.66 38.67 -21.32 38.34 -22 38 C-21.52691406 37.54753906 -21.05382812 37.09507812 -20.56640625 36.62890625 C-10.75107046 26.50743913 -4.99534854 13.02806981 0 0 Z " fill="#F9F9F9" transform="translate(938,200)"/>
<path d="M0 0 C2.34369906 1.11421759 3.97252582 2.33643144 6 4 C5.75489645 8.16676032 5.40672124 10.47707269 2.8125 13.8125 C-2.30327021 17.79143239 -7.01288258 18.24503995 -13.375 18.125 C-14.62023437 18.10695313 -15.86546875 18.08890625 -17.1484375 18.0703125 C-18.08945312 18.04710937 -19.03046875 18.02390625 -20 18 C-21.20408203 23.59315522 -21.87575338 28.52728458 -19.9375 34 C-18.0494316 36.35759384 -18.0494316 36.35759384 -14.5 36.5 C-11.12181432 36.28264436 -11.12181432 36.28264436 -9.1875 34.75 C-7.92988563 32.89667355 -6.91590998 31.0431838 -6 29 C-5.34 29 -4.68 29 -4 29 C-4.43427485 33.92178161 -6.69095697 36.45459675 -10 40 C-13.69906065 42.46604043 -16.70905732 42.79491944 -21 42 C-24.29155346 40.25698919 -26.46575533 37.89850241 -28.375 34.6875 C-30.16208834 27.00302015 -28.8359906 20.81042182 -25 14 C-18.61329436 5.4186349 -11.48660837 -2.16414361 0 0 Z " fill="#EC2323" transform="translate(821,360)"/>
<path d="M0 0 C2.83211456 1.67829011 3.37302853 3.90020013 4.1875 6.9375 C4.87029817 9.8185752 5 11.95382805 5 15 C9.99676148 10.74743704 14.64670463 6.3814456 19.04296875 1.50390625 C21.50546017 -0.38842748 22.96824418 -0.29846301 26 0 C26.31563182 5.26053037 25.66590937 8.44573816 23 13 C22.67 13 22.34 13 22 13 C22 11.02 22 9.04 22 7 C19.81099863 8.32602968 17.65369988 9.68117689 15.5 11.0625 C14.87996094 11.43310547 14.25992188 11.80371094 13.62109375 12.18554688 C11.5601197 13.46093558 11.5601197 13.46093558 9 16 C8.4873774 19.89593179 8.78354782 23.21211521 10 26.9375 C10.33 27.948125 10.66 28.95875 11 30 C11.66 30 12.32 30 13 30 C13.66 28.68 14.32 27.36 15 26 C15.99 26 16.98 26 18 26 C17.36562401 31.4556335 15.90304767 35.09695233 12 39 C9.08443906 38.85048405 7.50867006 38.45215117 5.3125 36.5 C3.3957092 32.84896991 2.73284151 29.03493911 2 25 C-2.64849166 26.81564615 -5.58650364 30.57118989 -8.84570312 34.1875 C-11.16906572 36.63723797 -12.42925051 37.93266878 -15.84765625 38.3359375 C-16.55792969 38.22507812 -17.26820313 38.11421875 -18 38 C-18.31563182 32.73946963 -17.66590937 29.55426184 -15 25 C-14.67 25 -14.34 25 -14 25 C-14 27.31 -14 29.62 -14 32 C-13.09507812 31.29423828 -13.09507812 31.29423828 -12.171875 30.57421875 C-11.37265625 29.95160156 -10.5734375 29.32898438 -9.75 28.6875 C-8.96109375 28.07261719 -8.1721875 27.45773437 -7.359375 26.82421875 C-5 25 -5 25 -2.6953125 23.5390625 C-0.78993036 22.1476459 -0.78993036 22.1476459 -0.7578125 19.94921875 C-0.87898437 19.20285156 -1.00015625 18.45648438 -1.125 17.6875 C-1.25003906 16.89859375 -1.37507812 16.1096875 -1.50390625 15.296875 C-2.12076422 12.44087118 -2.95138354 9.7264028 -4 7 C-4.66 7 -5.32 7 -6 7 C-6.99 9.31 -7.98 11.62 -9 14 C-9.66 13.67 -10.32 13.34 -11 13 C-10.53428232 8.24967963 -9.85175998 4.87839357 -7 1 C-4.45132831 -0.27433584 -2.82594567 -0.27570202 0 0 Z " fill="#EC2121" transform="translate(685,362)"/>
<path d="M0 0 C3.6875 0.4375 3.6875 0.4375 6.625 2.125 C9.90498528 7.39285515 9.5489778 12.40715542 8.6875 18.4375 C6.90084814 24.26969836 4.04726395 29.36037644 -1.19921875 32.67578125 C-5.44356368 34.20562831 -9.87808448 33.79834756 -14.3125 33.4375 C-13.76240294 26.37933159 -11.74579581 20.20912048 -9.375 13.5625 C-9.01470703 12.51835937 -8.65441406 11.47421875 -8.28320312 10.3984375 C-4.85159033 0.64077608 -4.85159033 0.64077608 0 0 Z " fill="#FEFAFA" transform="translate(735.3125,364.5625)"/>
<path d="M0 0 C1.03125 0.144375 2.0625 0.28875 3.125 0.4375 C2.50888165 4.75681387 1.48261422 8.68958775 0.0625 12.8125 C-0.29972656 13.87210937 -0.66195312 14.93171875 -1.03515625 16.0234375 C-1.31230469 16.82007813 -1.58945312 17.61671875 -1.875 18.4375 C-1.215 18.4375 -0.555 18.4375 0.125 18.4375 C0.38925781 17.85742188 0.65351562 17.27734375 0.92578125 16.6796875 C3.02788674 12.74936649 6.08341919 9.66454306 9.125 6.4375 C9.69734375 5.82648438 10.2696875 5.21546875 10.859375 4.5859375 C13.93820368 1.60597029 16.06892015 0.06366837 20.4375 -0.0625 C24.125 0.4375 24.125 0.4375 26.125 2.4375 C26.25 5.0625 26.25 5.0625 26.125 7.4375 C24.475 7.7675 22.825 8.0975 21.125 8.4375 C20.465 7.1175 19.805 5.7975 19.125 4.4375 C16.2576514 4.77454779 14.55669499 5.04654926 12.38671875 7.01171875 C6.6068583 14.77078699 1.80401681 23.11091023 -2.5390625 31.74609375 C-3.04179688 32.73738281 -3.54453125 33.72867188 -4.0625 34.75 C-4.48917969 35.63300781 -4.91585937 36.51601563 -5.35546875 37.42578125 C-6.875 39.4375 -6.875 39.4375 -9.55078125 40.23046875 C-10.31777344 40.29878906 -11.08476563 40.36710937 -11.875 40.4375 C-13.02945902 35.63039366 -12.66554717 32.86404674 -10.8203125 28.3046875 C-10.37042969 27.16902344 -9.92054688 26.03335937 -9.45703125 24.86328125 C-8.97621094 23.69152344 -8.49539063 22.51976562 -8 21.3125 C-7.06335341 18.97726395 -6.1283842 16.64135423 -5.1953125 14.3046875 C-4.77523926 13.27456543 -4.35516602 12.24444336 -3.92236328 11.18310547 C-3.06347996 8.9315899 -2.3856611 6.78710299 -1.875 4.4375 C-2.6175 5.200625 -3.36 5.96375 -4.125 6.75 C-6.3013323 8.8768702 -8.39667796 10.6934956 -10.875 12.4375 C-10.59911865 7.88545765 -8.58159843 5.11820018 -5.640625 1.8203125 C-3.875 0.4375 -3.875 0.4375 0 0 Z " fill="#EC2222" transform="translate(768.875,361.5625)"/>
<path d="M0 0 C2.02493318 2.64121719 1.72498553 4.64078783 1.4375 7.875 C-0.4375 8.5 -0.4375 8.5 -2.5625 8.875 C-4.5625 6.875 -4.5625 6.875 -4.6875 3.75 C-4.64625 2.80125 -4.605 1.8525 -4.5625 0.875 C-10.22706425 2.2482277 -13.30941214 6.32512313 -16.5625 10.875 C-20.97223923 18.19140945 -22.30120427 24.38810873 -21.5625 32.875 C-18.69641871 34.30804064 -16.74949217 34.18144155 -13.5625 33.875 C-10.32488866 32.02249996 -10.32488866 32.02249996 -7.5625 29.875 C-6.9025 29.545 -6.2425 29.215 -5.5625 28.875 C-7.12260578 33.08728561 -10.0470393 35.22046845 -13.5625 37.875 C-17.16822704 39.07690901 -19.7727435 39.20170315 -23.5625 38.875 C-26.31579021 37.07937595 -28.08877461 35.82245078 -29.5625 32.875 C-30.94461199 22.13301571 -27.54937402 13.89800286 -21.125 5.375 C-15.09056791 -0.51225082 -8.2502202 -3.62204789 0 0 Z " fill="#EB1F1F" transform="translate(995.5625,363.125)"/>
<path d="M0 0 C0.1748936 3.39517814 0.28103765 6.78919487 0.375 10.1875 C0.45041016 11.62706055 0.45041016 11.62706055 0.52734375 13.09570312 C0.67113026 20.02142007 0.67113026 20.02142007 -1.21508789 22.77172852 C-3.93168356 25.17614082 -6.53875631 26.68630967 -10.1875 26.5625 C-14 26 -14 26 -16 24.5625 C-17.52652623 20.65077654 -17.62106281 17.13801152 -17 13 C-14.4856463 7.42469397 -6.618807 0 0 0 Z " fill="#F6F8FD" transform="translate(341,226)"/>
<path d="M0 0 C1.35029624 4.45957154 0.58007468 6.86109224 -1.2734375 11.0703125 C-1.7684375 12.21371094 -2.2634375 13.35710937 -2.7734375 14.53515625 C-3.30195312 15.71980469 -3.83046875 16.90445312 -4.375 18.125 C-5.40422512 20.48151791 -6.43289734 22.83827741 -7.4609375 25.1953125 C-7.92290527 26.23703613 -8.38487305 27.27875977 -8.86083984 28.35205078 C-10.05635574 31.02836782 -10.05635574 31.02836782 -11 34 C-10.071875 33.484375 -9.14375 32.96875 -8.1875 32.4375 C-5 31 -5 31 -2 32 C-6.42695105 35.89035092 -10.93354251 38.80426867 -16.9375 39.1875 C-17.9584375 39.0946875 -17.9584375 39.0946875 -19 39 C-19.31339843 34.07050387 -18.35657559 30.78889041 -16.375 26.2890625 C-16.10864746 25.67606293 -15.84229492 25.06306335 -15.56787109 24.43148804 C-14.72208751 22.49134497 -13.86137036 20.5582658 -13 18.625 C-12.42087232 17.30382448 -11.84273687 15.98221355 -11.265625 14.66015625 C-9.85519167 11.43498809 -8.43129534 8.21597343 -7 5 C-7.77730469 5.48082031 -8.55460938 5.96164062 -9.35546875 6.45703125 C-11.67389838 7.80973392 -13.39432107 8.51746687 -16 9 C-13.26382043 2.46667327 -6.99103503 -0.87387938 0 0 Z " fill="#EB2020" transform="translate(915,362)"/>
<path d="M0 0 C0.99 0.66 1.98 1.32 3 2 C3.1875 5.125 3.1875 5.125 3 8 C0.625 7.6875 0.625 7.6875 -2 7 C-2.66 6.01 -3.32 5.02 -4 4 C-6.58380177 3.74969023 -6.58380177 3.74969023 -9 4 C-8.60102283 8.94731692 -7.98893828 13.34232222 -6.4375 18.0625 C-4.69493675 23.59063168 -3.80649518 28.31461415 -6.25 33.8125 C-8.1287297 36.16091213 -9.31503308 37.62123321 -12 39 C-16.787821 39.53198011 -18.86402545 39.72509014 -22.9375 37.125 C-25.56570262 34.41715488 -25.98641159 33.67942044 -26.0625 29.875 C-26.041875 28.92625 -26.02125 27.9775 -26 27 C-24.02 27.33 -22.04 27.66 -20 28 C-19.67 30.97 -19.34 33.94 -19 37 C-16.69 36.34 -14.38 35.68 -12 35 C-11.82080191 29.98245346 -12.21532258 26.14815163 -13.53515625 21.2734375 C-14.6043582 16.04423132 -15.43476861 9.82153382 -12.94921875 4.93359375 C-8.98028017 0.07486363 -6.0764046 -0.31981077 0 0 Z " fill="#EB1E1E" transform="translate(874,362)"/>
<path d="M0 0 C0.99 0.66 1.98 1.32 3 2 C3.1875 5.125 3.1875 5.125 3 8 C0.525 7.505 0.525 7.505 -2 7 C-2.33 5.68 -2.66 4.36 -3 3 C-4.98 3 -6.96 3 -9 3 C-9.46157961 7.96198086 -8.57741393 11.63720394 -7 16.375 C-5.08325051 22.28157909 -3.38233785 28.11902985 -5.890625 34.13671875 C-7.52195931 36.87667109 -9.07950071 37.7302177 -12 39 C-14.79276811 39.52011066 -17.21476214 39.58961689 -20 39 C-23 36.9375 -23 36.9375 -25 34 C-25.3125 30.1875 -25.3125 30.1875 -25 27 C-23.35 27.33 -21.7 27.66 -20 28 C-19.855625 29.134375 -19.71125 30.26875 -19.5625 31.4375 C-19.38828522 34.80777201 -19.38828522 34.80777201 -18 36 C-15.5 36.16666667 -15.5 36.16666667 -13 36 C-11.45763775 34.45763775 -11.83063926 33.01543321 -11.8125 30.875 C-11.83670465 27.79132806 -12.09557977 25.683392 -13 22.6875 C-14.51418869 17.10392922 -15.66922653 10.28881063 -12.94921875 4.9296875 C-8.9751819 0.07643896 -6.07730619 -0.31985822 0 0 Z " fill="#EC2222" transform="translate(848,362)"/>
<path d="M0 0 C10.23 0 20.46 0 31 0 C31 5.94 31 11.88 31 18 C27.71659429 16.68663772 24.89321591 15.48301611 21.85546875 13.79296875 C21.09556641 13.37080078 20.33566406 12.94863281 19.55273438 12.51367188 C18.77220703 12.07603516 17.99167969 11.63839844 17.1875 11.1875 C16.41857422 10.76146484 15.64964844 10.33542969 14.85742188 9.89648438 C4.0787035 3.88405159 4.0787035 3.88405159 0 1 C0 0.67 0 0.34 0 0 Z " fill="#F4F4F4" transform="translate(854,149)"/>
<path d="M0 0 C2.75329021 1.79562405 4.52627461 3.05254922 6 6 C6.54837085 10.02138622 6.1184148 11.78685336 4.125 15.375 C1.65306484 18.04468998 -0.40643425 18.5247317 -4 18.75 C-7.59356575 18.5247317 -9.65306484 18.04468998 -12.125 15.375 C-15.03448276 10.13793103 -15.03448276 10.13793103 -14 6 C-10.17689941 1.08938986 -6.32751157 -1.1717614 0 0 Z " fill="#224CE3" transform="translate(621,160)"/>
<path d="M0 0 C3.636581 1.00789136 5.03866736 2.44324261 7.0859375 5.578125 C7.80986987 8.58091491 8.17532998 11.48769943 8.0859375 14.578125 C7.0859375 15.578125 7.0859375 15.578125 4.95288086 15.69165039 C4.03643799 15.68641357 3.11999512 15.68117676 2.17578125 15.67578125 C1.18642578 15.67255859 0.19707031 15.66933594 -0.82226562 15.66601562 C-1.86318359 15.65763672 -2.90410156 15.64925781 -3.9765625 15.640625 C-5.02134766 15.63611328 -6.06613281 15.63160156 -7.14257812 15.62695312 C-9.7331291 15.61512413 -12.32356809 15.59864189 -14.9140625 15.578125 C-14.33068489 9.56204338 -13.11967779 6.47331278 -9.015625 2.1328125 C-5.98590768 -0.10850255 -3.69888981 -0.37872592 0 0 Z " fill="#F9FAFE" transform="translate(271.9140625,199.421875)"/>
<path d="M0 0 C5 2 5 2 12 6 C12 12.93 12 19.86 12 27 C10.68 26.01 9.36 25.02 8 24 C5.36 24 2.72 24 0 24 C0 16.08 0 8.16 0 0 Z " fill="#F1F1F1" transform="translate(763,199)"/>
<path d="M0 0 C7.11494595 0 13.5348225 3.62096188 19 8 C19.9765625 10.609375 19.9765625 10.609375 20 13 C18 15 18 15 15.796875 15.37109375 C12.03219767 14.87159047 9.3587427 13.10588705 6.25 11.0625 C5.66089844 10.68931641 5.07179688 10.31613281 4.46484375 9.93164062 C0.23028274 7.23028274 0.23028274 7.23028274 -1 6 C-1.125 3.5 -1.125 3.5 -1 1 C-0.67 0.67 -0.34 0.34 0 0 Z " fill="#090909" transform="translate(746,251)"/>
<path d="M0 0 C-0.5104708 4.46661951 -1.73391747 6.89323857 -5 10 C-9.68829987 12.40265617 -13.7003449 14 -19 14 C-18.67795437 8.68624709 -15.71262118 5.51357622 -12 2 C-7.61318354 -0.92454431 -5.09322999 -1.33394119 0 0 Z " fill="#FEF3F3" transform="translate(822,362)"/>
<path d="M0 0 C2.97 0.495 2.97 0.495 6 1 C6.33 3.97 6.66 6.94 7 10 C9.31 10.33 11.62 10.66 14 11 C14 11.33 14 11.66 14 12 C6.76813075 12.49029622 6.76813075 12.49029622 3.0625 10.125 C0.43429738 7.41715488 0.01358841 6.67942044 -0.0625 2.875 C-0.041875 1.92625 -0.02125 0.9775 0 0 Z " fill="#EE3939" transform="translate(848,389)"/>
<path d="M0 0 C2.475 0.495 2.475 0.495 5 1 C5.020625 2.093125 5.04125 3.18625 5.0625 4.3125 C5.56114043 7.95732337 5.56114043 7.95732337 7.625 9.1328125 C9.78223035 10.06424734 9.78223035 10.06424734 13 11 C13 11.33 13 11.66 13 12 C5.87791495 12.60356653 5.87791495 12.60356653 2 9.9375 C-0.44022082 6.35342568 -0.41668469 4.25018379 0 0 Z " fill="#ED2E2E" transform="translate(823,389)"/>
<path d="M0 0 C0.99 0.66 1.98 1.32 3 2 C3.1875 5.125 3.1875 5.125 3 8 C0.625 7.6875 0.625 7.6875 -2 7 C-2.66 6.01 -3.32 5.02 -4 4 C-7.08365871 3.7497843 -7.08365871 3.7497843 -10 4 C-9.67 3.01 -9.34 2.02 -9 1 C-5.98131566 -0.50934217 -3.32702771 -0.17510672 0 0 Z " fill="#EC2929" transform="translate(874,362)"/>
<path d="M0 0 C2.625 0.375 2.625 0.375 5 1 C5.33 2.65 5.66 4.3 6 6 C3 8 3 8 0.8125 7.625 C0.214375 7.41875 -0.38375 7.2125 -1 7 C-1.625 4.625 -1.625 4.625 -2 2 C-1.34 1.34 -0.68 0.68 0 0 Z " fill="#EC2929" transform="translate(917,342)"/>
<path d="M0 0 C2.5625 0.1875 2.5625 0.1875 4.5625 2.1875 C4.6875 4.8125 4.6875 4.8125 4.5625 7.1875 C2.9125 7.5175 1.2625 7.8475 -0.4375 8.1875 C-1.4275 5.8775 -2.4175 3.5675 -3.4375 1.1875 C-2.4375 0.1875 -2.4375 0.1875 0 0 Z " fill="#EB1919" transform="translate(790.4375,361.8125)"/>
<path d="M0 0 C2 1 2 1 3 3 C1.3970947 3.81498562 -0.20737278 4.62689927 -1.8125 5.4375 C-2.70582031 5.88996094 -3.59914063 6.34242188 -4.51953125 6.80859375 C-7 8 -7 8 -10 9 C-8.60064115 5.59635112 -7.12995268 4.09193812 -4 2.1875 C-3.29875 1.74792969 -2.5975 1.30835938 -1.875 0.85546875 C-1.25625 0.57316406 -0.6375 0.29085938 0 0 Z " fill="#ED2E2E" transform="translate(720,367)"/>
<path d="M0 0 C0.66 0.33 1.32 0.66 2 1 C1.06981474 2.46300982 0.13055973 3.92025579 -0.8125 5.375 C-1.33457031 6.18710937 -1.85664062 6.99921875 -2.39453125 7.8359375 C-4 10 -4 10 -7 12 C-6.67566492 6.64847115 -3.50295176 3.71719957 0 0 Z " fill="#EC2929" transform="translate(765,362)"/>
<path d="M0 0 C1.22589844 0.01353516 1.22589844 0.01353516 2.4765625 0.02734375 C3.41628906 0.04474609 3.41628906 0.04474609 4.375 0.0625 C4.045 0.7225 3.715 1.3825 3.375 2.0625 C2.3025 2.206875 1.23 2.35125 0.125 2.5 C-3.59414603 3.0578719 -5.58237715 3.94188407 -8.625 6.0625 C-6.70953433 0.72655991 -5.60839184 -0.08011988 0 0 Z " fill="#EE3D3D" transform="translate(816.625,359.9375)"/>
<path d="M0 0 C0.66 0.33 1.32 0.66 2 1 C-2.82142857 7.29464286 -2.82142857 7.29464286 -7 8 C-6.21366078 6.85050412 -5.42073742 5.70551011 -4.625 4.5625 C-4.18414063 3.92441406 -3.74328125 3.28632813 -3.2890625 2.62890625 C-2 1 -2 1 0 0 Z " fill="#ED3232" transform="translate(960,389)"/>
<path d="M0 0 C0 3 0 3 -1.53125 4.60546875 C-2.1809375 5.12753906 -2.830625 5.64960938 -3.5 6.1875 C-4.1496875 6.71730469 -4.799375 7.24710937 -5.46875 7.79296875 C-5.9740625 8.19128906 -6.479375 8.58960938 -7 9 C-7.33 8.34 -7.66 7.68 -8 7 C-5.53058944 4.40062046 -2.81939117 2.20979308 0 0 Z " fill="#ED3232" transform="translate(989,392)"/>
<path d="M0 0 C2 1 2 1 3 3 C-0.96 4.98 -0.96 4.98 -5 7 C-3.75023244 3.34683329 -3.32901247 2.21934164 0 0 Z " fill="#EC2A2A" transform="translate(951,364)"/>
<path d="M0 0 C1.0326802 2.78823655 1.04509293 3.8677274 0.0625 6.75 C-0.288125 7.4925 -0.63875 8.235 -1 9 C-1.66 8.67 -2.32 8.34 -3 8 C-1.125 1.125 -1.125 1.125 0 0 Z " fill="#ED3232" transform="translate(659,358)"/>
</svg>
